<?xml version="1.0" encoding="iso-8859-1"?>
<!-- Uploaded to: SVG Repo, www.svgrepo.com, Generator: SVG Repo Mixer Tools -->
<svg version="1.1" id="Layer_1" xmlns="http://www.w3.org/2000/svg" xmlns:xlink="http://www.w3.org/1999/xlink" 
	 viewBox="0 0 512 512" xml:space="preserve">
<path style="fill:#FF7452;" d="M498.915,175.019C465.028,73.325,369.082,0,256,0C114.615,0,0,114.615,0,256
	c0,119.947,82.5,220.612,193.847,248.386L498.915,175.019z"/>
<path style="fill:#E24642;" d="M512,256c0-28.302-4.604-55.529-13.085-80.981l-64.828-64.828l-356.174,256l52.313,52.313
	l-13.357,8.904l76.977,76.977C213.747,509.35,234.563,512,256,512C397.385,512,512,397.384,512,256z"/>
<polygon style="fill:#CCCCCC;" points="311.652,338.365 311.652,416.278 256,416.278 222.609,338.365 "/>
<g>
	<rect x="200.348" y="338.365" style="fill:#E5E5E5;" width="55.652" height="77.913"/>
	<polygon style="fill:#E5E5E5;" points="256,405.148 246.275,416.278 256,427.409 395.13,427.409 395.13,405.148 	"/>
</g>
<rect x="116.87" y="405.148" style="fill:#FFFFFF;" width="139.13" height="22.261"/>
<polygon style="fill:#243870;" points="256,110.191 189.217,355.061 434.087,321.67 434.087,110.191 "/>
<polygon style="fill:#3D4E9C;" points="256,110.191 77.913,110.191 77.913,321.67 256,355.061 "/>
<polygon style="fill:#FFD652;" points="278.261,188.104 263.889,215.93 278.261,243.757 345.043,277.148 359.513,215.93 
	345.043,154.713 "/>
<polygon style="fill:#999999;" points="244.87,232.626 244.87,332.8 278.261,332.8 278.261,254.887 "/>
<polygon style="fill:#B2B2B2;" points="256,232.626 233.739,254.887 233.739,332.8 256,332.8 "/>
<polygon style="fill:#F15D4A;" points="256,176.974 241.628,215.93 256,254.887 278.261,254.887 278.261,176.974 "/>
<polygon style="fill:#FF7452;" points="155.826,249.322 155.826,182.539 122.435,193.67 122.435,238.191 "/>
<polygon style="fill:#FBE287;" points="233.739,188.104 248.111,215.93 233.739,243.757 166.957,277.148 152.487,215.93 
	166.957,154.713 "/>
<rect x="144.696" y="154.713" style="fill:#FDBA4C;" width="22.261" height="122.435"/>
<rect x="233.739" y="176.974" style="fill:#FF7452;" width="22.261" height="77.913"/>
<polygon style="fill:#F15D4A;" points="356.174,249.322 356.174,182.539 389.565,193.67 389.565,238.191 "/>
<rect x="345.043" y="154.713" style="fill:#FB9D46;" width="22.261" height="122.435"/>
<polygon style="fill:#E5E5E5;" points="256,321.67 230.067,343.93 256,366.191 434.087,366.191 434.087,321.67 "/>
<rect x="77.913" y="321.67" style="fill:#FFFFFF;" width="178.087" height="44.522"/>
</svg>